<svg width="372" height="100" viewBox="-1 -1 374 102" fill="none" xmlns="http://www.w3.org/2000/svg" stroke="#000000" stroke-width="1">
<path d="M154.895 76.9C149.445 76.9 144.52 75.725 140.12 73.375C135.77 71.025 132.345 67.8 129.845 63.7C127.395 59.55 126.17 54.9 126.17 49.75C126.17 44.6 127.395 39.975 129.845 35.875C132.345 31.725 135.77 28.475 140.12 26.125C144.52 23.775 149.445 22.6 154.895 22.6C160.345 22.6 165.245 23.775 169.595 26.125C173.945 28.475 177.37 31.725 179.87 35.875C182.37 39.975 183.62 44.6 183.62 49.75C183.62 54.9 182.37 59.55 179.87 63.7C177.37 67.8 173.945 71.025 169.595 73.375C165.245 75.725 160.345 76.9 154.895 76.9ZM154.895 66.55C157.995 66.55 160.795 65.85 163.295 64.45C165.795 63 167.745 61 169.145 58.45C170.595 55.9 171.32 53 171.32 49.75C171.32 46.5 170.595 43.6 169.145 41.05C167.745 38.5 165.795 36.525 163.295 35.125C160.795 33.675 157.995 32.95 154.895 32.95C151.795 32.95 148.995 33.675 146.495 35.125C143.995 36.525 142.02 38.5 140.57 41.05C139.17 43.6 138.47 46.5 138.47 49.75C138.47 53 139.17 55.9 140.57 58.45C142.02 61 143.995 63 146.495 64.45C148.995 65.85 151.795 66.55 154.895 66.55ZM209.251 60.175L203.626 65.725V76H191.926V20.35H203.626V51.85L220.726 35.65H234.676L217.876 52.75L236.176 76H222.001L209.251 60.175ZM281.355 35.65V76H270.255V71.2C268.705 72.95 266.855 74.3 264.705 75.25C262.555 76.15 260.23 76.6 257.73 76.6C252.43 76.6 248.23 75.075 245.13 72.025C242.03 68.975 240.48 64.45 240.48 58.45V35.65H252.18V56.725C252.18 63.225 254.905 66.475 260.355 66.475C263.155 66.475 265.405 65.575 267.105 63.775C268.805 61.925 269.655 59.2 269.655 55.6V35.65H281.355ZM292.194 20.35H303.894V76H292.194V20.35ZM314.753 35.65H326.453V76H314.753V35.65ZM320.603 30.025C318.453 30.025 316.703 29.4 315.353 28.15C314.003 26.9 313.328 25.35 313.328 23.5C313.328 21.65 314.003 20.1 315.353 18.85C316.703 17.6 318.453 16.975 320.603 16.975C322.753 16.975 324.503 17.575 325.853 18.775C327.203 19.975 327.878 21.475 327.878 23.275C327.878 25.225 327.203 26.85 325.853 28.15C324.503 29.4 322.753 30.025 320.603 30.025ZM350.887 76.6C347.537 76.6 344.262 76.2 341.062 75.4C337.862 74.55 335.312 73.5 333.412 72.25L337.312 63.85C339.112 65 341.287 65.95 343.837 66.7C346.387 67.4 348.887 67.75 351.337 67.75C356.287 67.75 358.762 66.525 358.762 64.075C358.762 62.925 358.087 62.1 356.737 61.6C355.387 61.1 353.312 60.675 350.512 60.325C347.212 59.825 344.487 59.25 342.337 58.6C340.187 57.95 338.312 56.8 336.712 55.15C335.162 53.5 334.387 51.15 334.387 48.1C334.387 45.55 335.112 43.3 336.562 41.35C338.062 39.35 340.212 37.8 343.012 36.7C345.862 35.6 349.212 35.05 353.062 35.05C355.912 35.05 358.737 35.375 361.537 36.025C364.387 36.625 366.737 37.475 368.587 38.575L364.687 46.9C361.137 44.9 357.262 43.9 353.062 43.9C350.562 43.9 348.687 44.25 347.437 44.95C346.187 45.65 345.562 46.55 345.562 47.65C345.562 48.9 346.237 49.775 347.587 50.275C348.937 50.775 351.087 51.25 354.037 51.7C357.337 52.25 360.037 52.85 362.137 53.5C364.237 54.1 366.062 55.225 367.612 56.875C369.162 58.525 369.937 60.825 369.937 63.775C369.937 66.275 369.187 68.5 367.687 70.45C366.187 72.4 363.987 73.925 361.087 75.025C358.237 76.075 354.837 76.6 350.887 76.6Z" fill="white"/>
<path d="M61.9962 45.1539C61.9962 47.3081 61.9512 49.4623 61.9962 51.6165C62.0412 52.6039 61.6811 53.4566 61.2309 54.2644C59.7004 57.1816 57.3595 59.2909 54.7936 61.1758C53.4431 62.1632 52.0026 63.0608 50.5171 63.8237C50.247 63.9583 50.0219 64.093 49.7068 63.9135C45.7454 61.8041 42.0991 59.2909 39.4881 55.4762C38.4978 54.04 37.9576 52.559 38.0026 50.7638C38.0926 46.6349 38.0476 42.4612 38.0026 38.3323C38.0026 37.704 38.2277 37.3898 38.7679 37.1654C46.2406 34.2931 53.7582 34.2483 61.2309 37.2103C61.7711 37.4347 61.9512 37.6591 61.9512 38.2425C61.9962 40.5314 61.9962 42.8651 61.9962 45.1539Z" fill="#FFC900"/>
<path d="M49.9758 69.8982C49.6849 69.8982 49.3941 69.8497 49.0548 69.6558C44.6922 67.3291 39.1663 63.9845 35.2884 58.4101C33.7858 56.2288 33.1071 54.096 33.1556 51.6238C33.2525 46.8735 33.2525 42.0262 33.2041 37.3243V35.5793C33.2041 34.2705 33.7373 33.4464 34.9491 33.0102C44.983 29.1808 55.1624 29.1808 65.1478 33.0586C66.3112 33.4949 66.7959 34.2705 66.7959 35.4823C66.7475 37.6636 66.7475 39.8449 66.7959 42.0262C66.7959 42.8502 66.7959 43.6743 66.7959 44.4498C66.7959 45.2739 66.7959 46.0494 66.7959 46.8735C66.7959 48.8124 66.7959 50.7998 66.8444 52.7872C66.8929 54.3383 66.3112 55.6471 65.7295 56.8105C63.4998 61.0276 60.0582 63.8875 56.9559 66.1173C55.2109 67.3776 53.2719 68.5894 51.1876 69.6074C50.8968 69.6558 50.4605 69.8982 49.9758 69.8982ZM35.4823 35.1915C35.4823 35.1915 35.4338 35.2884 35.4338 35.5308V37.2758C35.4823 41.9777 35.5308 46.8735 35.3854 51.6723C35.3369 53.6112 35.8701 55.3563 37.0819 57.1013C40.6205 62.2395 45.8071 65.4387 49.9273 67.62C49.9758 67.62 50.0242 67.5715 50.0727 67.5715C52.0116 66.602 53.8536 65.4872 55.5502 64.2753C58.4101 62.191 61.6578 59.5734 63.6452 55.6956C64.1784 54.6292 64.5177 53.8051 64.5177 52.7872C64.4692 50.7998 64.4692 48.7639 64.4692 46.825C64.4692 46.001 64.4692 45.2254 64.4692 44.4014C64.4692 43.5773 64.4692 42.8017 64.4692 41.9777C64.4692 39.8449 64.4692 37.6151 64.4692 35.4338C64.4692 35.3369 64.4692 35.2884 64.4692 35.2399C64.4207 35.2399 64.3723 35.1915 64.2753 35.143C54.8231 31.5075 45.1769 31.459 35.6762 35.0945C35.5308 35.143 35.4823 35.1915 35.4823 35.1915Z" fill="white"/>
<path d="M49.9758 0C22.3946 0 0 22.3946 0 49.9758C0 77.6054 22.3946 99.9515 49.9758 99.9515C77.557 99.9515 99.9515 77.557 99.9515 49.9758C100 22.3946 77.6054 0 49.9758 0ZM49.9758 85.2642C30.4896 85.2642 14.7358 69.4619 14.7358 50.0242C14.7358 30.538 30.5381 14.7843 49.9758 14.7843C69.4135 14.7843 85.2157 30.5865 85.2157 50.0242C85.2642 69.4619 69.462 85.2642 49.9758 85.2642Z" fill="#327DF4"/>
</svg>
